<svg width="48" height="48" viewBox="0 0 48 48" fill="none" xmlns="http://www.w3.org/2000/svg">
<g clip-path="url(#clip0_558_1606)">
<path d="M48 31.9999V41.9999C48 43.5912 47.3679 45.1173 46.2426 46.2425C45.1174 47.3678 43.5913 47.9999 42 47.9999H32C29.1942 47.997 26.4385 47.2564 24.0093 45.8522C21.5801 44.4481 19.5629 42.4298 18.16 39.9999C19.6677 39.9891 21.1704 39.8229 22.644 39.5039C23.7663 40.9072 25.19 42.04 26.8096 42.8182C28.4292 43.5965 30.2031 44.0004 32 43.9999H42C42.5304 43.9999 43.0391 43.7892 43.4142 43.4141C43.7893 43.039 44 42.5303 44 41.9999V31.9999C43.9995 30.2024 43.5944 28.428 42.8147 26.8084C42.035 25.1887 40.9008 23.7654 39.496 22.6439C39.8177 21.1705 39.9866 19.6679 40 18.1599C42.4299 19.5628 44.4482 21.58 45.8523 24.0092C47.2565 26.4384 47.9971 29.1941 48 31.9999ZM35.954 19.3019C36.141 16.7252 35.7712 14.1384 34.8697 11.7173C33.9681 9.2962 32.556 7.09755 30.7292 5.27074C28.9024 3.44393 26.7037 2.03177 24.2826 1.13021C21.8615 0.228663 19.2747 -0.141151 16.698 0.0458999C12.1318 0.567364 7.91385 2.74025 4.83835 6.15539C1.76285 9.57052 0.0420543 13.9922 0 18.5879L0 28.6679C0 33.7319 3.014 35.9999 6 35.9999H17.4C21.9976 35.9603 26.422 34.2407 29.8396 31.165C33.2571 28.0893 35.4319 23.8699 35.954 19.3019V19.3019ZM27.9 8.1019C29.3199 9.52491 30.4175 11.2363 31.1187 13.1203C31.8198 15.0043 32.1081 17.0169 31.964 19.0219C31.5371 22.5893 29.821 25.8775 27.1387 28.2678C24.4563 30.658 20.9928 31.9853 17.4 31.9999H6C4.144 31.9999 4 29.4499 4 28.6679V18.5879C4.01668 14.9967 5.3453 11.5353 7.73583 8.85526C10.1264 6.1752 13.414 4.46124 16.98 4.0359C17.312 4.0119 17.644 3.9999 17.976 3.9999C19.8185 3.99818 21.6434 4.35957 23.3462 5.06342C25.049 5.76726 26.5964 6.79975 27.9 8.1019Z" fill="#5B16DB"/>
</g>
<defs>
<clipPath id="clip0_558_1606">
<rect width="48" height="48" fill="white"/>
</clipPath>
</defs>
</svg>
