<svg width="48" height="48" viewBox="0 0 48 48" fill="none" xmlns="http://www.w3.org/2000/svg">
<g clip-path="url(#clip0_555_1610)">
<path d="M42 32.0008V24.0008C41.9993 21.3138 41.396 18.6612 40.2344 16.2383C39.0728 13.8154 37.3825 11.6839 35.288 10.0008H40.554C40.9972 10.756 41.677 11.3441 42.4882 11.674C43.2994 12.0039 44.1967 12.0571 45.0412 11.8256C45.8857 11.594 46.6303 11.0906 47.1598 10.3931C47.6893 9.69563 47.9742 8.84307 47.9702 7.9674C47.9663 7.09173 47.6738 6.24177 47.138 5.5491C46.6023 4.85643 45.8532 4.35968 45.0066 4.13573C44.16 3.91179 43.2633 3.97315 42.4551 4.31031C41.6469 4.64747 40.9724 5.24163 40.536 6.00081H31.716C31.2795 4.28565 30.2839 2.76482 28.8866 1.6786C27.4893 0.592377 25.7699 0.00268555 24 0.00268555C22.2301 0.00268555 20.5107 0.592377 19.1134 1.6786C17.7161 2.76482 16.7205 4.28565 16.284 6.00081H7.446C7.00277 5.24559 6.32296 4.65752 5.51178 4.32765C4.70061 3.99778 3.80332 3.94449 2.9588 4.17604C2.11429 4.4076 1.36965 4.91107 0.84016 5.60854C0.310666 6.306 0.0258451 7.15855 0.0297856 8.03423C0.0337261 8.9099 0.326208 9.75986 0.861958 10.4525C1.39771 11.1452 2.14684 11.642 2.99341 11.8659C3.83997 12.0898 4.73675 12.0285 5.54492 11.6913C6.35309 11.3542 7.02759 10.76 7.464 10.0008H12.712C10.6175 11.6839 8.92724 13.8154 7.76563 16.2383C6.60402 18.6612 6.00067 21.3138 6 24.0008V32.0008C4.4087 32.0008 2.88258 32.633 1.75736 33.7582C0.632141 34.8834 0 36.4095 0 38.0008L0 42.0008C0 43.5921 0.632141 45.1182 1.75736 46.2435C2.88258 47.3687 4.4087 48.0008 6 48.0008H10C11.5913 48.0008 13.1174 47.3687 14.2426 46.2435C15.3679 45.1182 16 43.5921 16 42.0008V38.0008C16 36.4095 15.3679 34.8834 14.2426 33.7582C13.1174 32.633 11.5913 32.0008 10 32.0008V24.0008C10.0033 21.5382 10.656 19.1201 11.8924 16.9903C13.1288 14.8606 14.9051 13.0947 17.042 11.8708C17.7239 13.1208 18.7299 14.1639 19.9542 14.8907C21.1786 15.6175 22.5762 16.0011 24 16.0011C25.4238 16.0011 26.8214 15.6175 28.0458 14.8907C29.2701 14.1639 30.2761 13.1208 30.958 11.8708C33.0949 13.0947 34.8712 14.8606 36.1076 16.9903C37.344 19.1201 37.9967 21.5382 38 24.0008V32.0008C36.4087 32.0008 34.8826 32.633 33.7574 33.7582C32.6321 34.8834 32 36.4095 32 38.0008V42.0008C32 43.5921 32.6321 45.1182 33.7574 46.2435C34.8826 47.3687 36.4087 48.0008 38 48.0008H42C43.5913 48.0008 45.1174 47.3687 46.2426 46.2435C47.3679 45.1182 48 43.5921 48 42.0008V38.0008C48 36.4095 47.3679 34.8834 46.2426 33.7582C45.1174 32.633 43.5913 32.0008 42 32.0008V32.0008ZM12 38.0008V42.0008C12 42.5312 11.7893 43.04 11.4142 43.415C11.0391 43.7901 10.5304 44.0008 10 44.0008H6C5.46957 44.0008 4.96086 43.7901 4.58579 43.415C4.21071 43.04 4 42.5312 4 42.0008V38.0008C4 37.4704 4.21071 36.9617 4.58579 36.5866C4.96086 36.2115 5.46957 36.0008 6 36.0008H10C10.5304 36.0008 11.0391 36.2115 11.4142 36.5866C11.7893 36.9617 12 37.4704 12 38.0008ZM24 12.0008C23.2089 12.0008 22.4355 11.7662 21.7777 11.3267C21.1199 10.8872 20.6072 10.2625 20.3045 9.53155C20.0017 8.80064 19.9225 7.99638 20.0769 7.22045C20.2312 6.44453 20.6122 5.7318 21.1716 5.17239C21.731 4.61298 22.4437 4.23201 23.2196 4.07767C23.9956 3.92333 24.7998 4.00255 25.5307 4.3053C26.2616 4.60805 26.8864 5.12074 27.3259 5.77853C27.7654 6.43633 28 7.20969 28 8.00081C28 9.06168 27.5786 10.0791 26.8284 10.8292C26.0783 11.5794 25.0609 12.0008 24 12.0008ZM44 42.0008C44 42.5312 43.7893 43.04 43.4142 43.415C43.0391 43.7901 42.5304 44.0008 42 44.0008H38C37.4696 44.0008 36.9609 43.7901 36.5858 43.415C36.2107 43.04 36 42.5312 36 42.0008V38.0008C36 37.4704 36.2107 36.9617 36.5858 36.5866C36.9609 36.2115 37.4696 36.0008 38 36.0008H42C42.5304 36.0008 43.0391 36.2115 43.4142 36.5866C43.7893 36.9617 44 37.4704 44 38.0008V42.0008Z" fill="#5B16DB"/>
</g>
<defs>
<clipPath id="clip0_555_1610">
<rect width="48" height="48" fill="white"/>
</clipPath>
</defs>
</svg>
