<svg width="48" height="48" viewBox="0 0 48 48" fill="none" xmlns="http://www.w3.org/2000/svg">
<g clip-path="url(#clip0_555_1606)">
<path d="M30.0001 0H18.0001C15.3489 0.00317572 12.8072 1.05776 10.9326 2.93244C9.05789 4.80712 8.0033 7.34881 8.00012 10V38C8.0033 40.6512 9.05789 43.1929 10.9326 45.0676C12.8072 46.9422 15.3489 47.9968 18.0001 48H30.0001C32.6513 47.9968 35.193 46.9422 37.0677 45.0676C38.9424 43.1929 39.9969 40.6512 40.0001 38V10C39.9969 7.34881 38.9424 4.80712 37.0677 2.93244C35.193 1.05776 32.6513 0.00317572 30.0001 0V0ZM18.0001 4H30.0001C31.5914 4 33.1175 4.63214 34.2428 5.75736C35.368 6.88258 36.0001 8.4087 36.0001 10V32H12.0001V10C12.0001 8.4087 12.6323 6.88258 13.7575 5.75736C14.8827 4.63214 16.4088 4 18.0001 4V4ZM30.0001 44H18.0001C16.4088 44 14.8827 43.3679 13.7575 42.2426C12.6323 41.1174 12.0001 39.5913 12.0001 38V36H36.0001V38C36.0001 39.5913 35.368 41.1174 34.2428 42.2426C33.1175 43.3679 31.5914 44 30.0001 44V44Z" fill="#5B16DB"/>
<path d="M24.0003 41.9988C25.1049 41.9988 26.0003 41.1034 26.0003 39.9988C26.0003 38.8942 25.1049 37.9988 24.0003 37.9988C22.8957 37.9988 22.0003 38.8942 22.0003 39.9988C22.0003 41.1034 22.8957 41.9988 24.0003 41.9988Z" fill="#5B16DB"/>
</g>
<defs>
<clipPath id="clip0_555_1606">
<rect width="48" height="48" fill="white"/>
</clipPath>
</defs>
</svg>
