<svg width="212" height="212" viewBox="0 0 212 212" fill="none" xmlns="http://www.w3.org/2000/svg">
<g clip-path="url(#clip0_559_1669)">
<path d="M29.7351 175.741L27.7571 177.442L22.1179 170.884L24.0959 169.183L29.7351 175.741ZM33.6849 172.597L31.8092 174.208L26.5127 168.047L28.3884 166.436L33.6849 172.597ZM37.9114 170.571L28.677 178.512L26.7471 176.27L35.9815 168.335L37.9114 170.577V170.571Z" fill="black"/>
<path d="M29.7654 160.84L19.4789 167.362L15.8657 161.663C15.3607 160.87 15.0661 160.106 14.9819 159.373C14.8917 158.64 15 157.96 15.3006 157.341C15.6012 156.716 16.0821 156.199 16.7494 155.773C17.4047 155.358 18.1021 155.153 18.8356 155.159C19.5691 155.165 20.2664 155.364 20.9278 155.748C21.5891 156.133 22.1482 156.68 22.5991 157.395L24.7033 160.713L28.2563 158.459L29.7654 160.84ZM22.7915 161.928L20.8616 158.886C20.6813 158.604 20.4588 158.381 20.1883 158.219C19.9178 158.057 19.6352 157.973 19.3346 157.96C19.028 157.948 18.7394 158.033 18.4508 158.213C18.1863 158.381 17.9999 158.604 17.8917 158.874C17.7835 159.151 17.7534 159.439 17.8015 159.752C17.8496 160.064 17.9699 160.377 18.1683 160.689L20.05 163.659L22.7794 161.928H22.7915ZM25.2083 153.657L22.6712 159.92L20.6572 157.552L23.3746 150.759L25.2083 153.657Z" fill="black"/>
<path d="M19.8639 142.597C20.2968 143.612 20.5372 144.598 20.6034 145.554C20.6695 146.51 20.5613 147.405 20.2968 148.235C20.0322 149.064 19.6174 149.798 19.0583 150.435C18.4992 151.072 17.8018 151.565 16.9661 151.92C16.1365 152.274 15.2948 152.43 14.4471 152.394C13.5994 152.358 12.7818 152.142 12.0002 151.751C11.2187 151.361 10.5033 150.814 9.85397 150.11C9.21069 149.407 8.67563 148.553 8.24878 147.55C7.82794 146.558 7.58746 145.584 7.52734 144.628C7.46722 143.673 7.56943 142.777 7.83997 141.941C8.1105 141.112 8.52533 140.373 9.08444 139.741C9.64356 139.11 10.3349 138.611 11.1586 138.263C11.9822 137.914 12.8119 137.758 13.6595 137.794C14.5072 137.83 15.3249 138.04 16.1124 138.425C16.9 138.81 17.6154 139.357 18.2647 140.06C18.914 140.769 19.4431 141.611 19.8639 142.597ZM17.3088 143.703C17.0563 143.114 16.7437 142.609 16.3649 142.176C15.9862 141.743 15.5714 141.412 15.1265 141.178C14.6816 140.944 14.2187 140.817 13.7377 140.787C13.2628 140.757 12.7878 140.841 12.3309 141.034C11.874 141.226 11.4892 141.509 11.1766 141.875C10.864 142.242 10.6415 142.663 10.4973 143.15C10.353 143.636 10.3109 144.159 10.359 144.73C10.4071 145.302 10.5574 145.885 10.8039 146.468C11.0504 147.057 11.363 147.562 11.7417 147.988C12.1205 148.415 12.5293 148.746 12.9802 148.992C13.4311 149.239 13.894 149.371 14.369 149.395C14.8439 149.419 15.3128 149.335 15.7697 149.136C16.2267 148.938 16.6174 148.662 16.9301 148.307C17.2427 147.946 17.4711 147.52 17.6034 147.027C17.7417 146.534 17.7838 146.005 17.7417 145.44C17.6996 144.875 17.5493 144.298 17.2968 143.709L17.3088 143.703Z" fill="black"/>
<path d="M16.1245 133.64L4.24488 136.321L3.66171 133.743L9.25886 127.022L9.6316 128.687L1.68378 125.003L1.10663 122.46L12.9863 119.779L13.6175 122.58L9.7819 123.446C8.83201 123.662 7.93622 123.837 7.10056 123.969C6.2649 124.107 5.40519 124.203 4.52744 124.269L5.39316 123.771L11.5374 126.806L11.7899 127.924L7.53342 133.322L6.54746 133.208C7.35306 132.883 8.16468 132.607 8.97028 132.378C9.77589 132.15 10.6717 131.921 11.6456 131.705L15.4812 130.839L16.1125 133.64H16.1245Z" fill="black"/>
<path d="M12.1741 110.132L-0.00012207 109.945L0.102081 103.321C0.120117 102.3 0.252381 101.44 0.504883 100.737C0.757386 100.033 1.11209 99.5104 1.55698 99.1618C2.00186 98.8132 2.53693 98.6449 3.16818 98.6569C3.84153 98.6689 4.41266 98.8733 4.88761 99.276C5.36255 99.6788 5.6872 100.274 5.86155 101.067L5.54892 100.995C5.67518 100.472 5.86756 99.9913 6.12607 99.5525C6.3906 99.1077 6.72727 98.7531 7.15412 98.4886C7.57496 98.2241 8.07996 98.0919 8.67515 98.1039C9.39658 98.1159 9.98576 98.2662 10.4487 98.5667C10.9116 98.8673 11.2843 99.258 11.5549 99.7509C11.8254 100.244 12.0178 100.779 12.132 101.368C12.2463 101.957 12.2944 102.54 12.2883 103.117L12.1801 110.144L12.1741 110.132ZM4.83951 107.234L4.89963 103.442C4.89963 103.069 4.86356 102.744 4.77338 102.468C4.6832 102.185 4.55695 101.969 4.3826 101.807C4.20826 101.644 3.99182 101.566 3.7273 101.56C3.33051 101.56 3.04193 101.734 2.85556 102.101C2.66919 102.468 2.573 102.937 2.56699 103.508L2.51288 107.192L4.84552 107.228L4.83951 107.234ZM9.74528 107.313L9.81141 103.033C9.81141 102.636 9.77534 102.293 9.68516 101.993C9.59498 101.692 9.45069 101.458 9.2523 101.272C9.0539 101.091 8.79539 100.995 8.48276 100.989C8.14609 100.989 7.88157 101.091 7.68918 101.308C7.4968 101.524 7.35251 101.795 7.26835 102.119C7.18418 102.444 7.13608 102.762 7.13007 103.075L7.06394 107.265L9.74528 107.307V107.313Z" fill="black"/>
<path d="M12.6373 95.7597L0.631409 93.722L1.76166 87.0679C1.91797 86.1423 2.21256 85.3789 2.63941 84.7718C3.06626 84.1707 3.59531 83.7379 4.23859 83.4734C4.87586 83.2089 5.58527 83.1488 6.36081 83.2751C7.13034 83.4073 7.77964 83.7199 8.32071 84.2188C8.86179 84.7177 9.24656 85.3308 9.48102 86.0581C9.71549 86.7854 9.76359 87.5668 9.6193 88.4024L8.96399 92.2794L13.1123 92.9827L12.6433 95.7597H12.6373ZM6.72754 91.9007L7.32874 88.3483C7.38285 88.0177 7.37082 87.7051 7.27463 87.4046C7.17844 87.104 7.02814 86.8515 6.81171 86.6412C6.59528 86.4248 6.31873 86.2925 5.98807 86.2384C5.68146 86.1843 5.39289 86.2264 5.12836 86.3587C4.86383 86.4909 4.6474 86.6893 4.47306 86.9537C4.29871 87.2182 4.17847 87.5308 4.11835 87.8974L3.52918 91.3597L6.72153 91.9007H6.72754ZM14.0621 87.3745L7.98404 90.3319L8.06821 87.2242L14.6333 83.9964L14.0621 87.3745Z" fill="black"/>
<path d="M14.7534 83.263L5.01404 73.9401L5.87375 71.3494L19.2504 69.6904L18.2945 72.5817L10.5871 73.5494C10.2986 73.5735 10.028 73.6035 9.7695 73.6336C9.517 73.6636 9.2645 73.6877 9.02402 73.6997C8.78354 73.7117 8.53705 73.7177 8.29056 73.7237C8.04407 73.7237 7.80359 73.7237 7.5571 73.7237L7.74347 73.1106C7.9599 73.2669 8.17032 73.4232 8.36872 73.5735C8.56711 73.7237 8.76551 73.886 8.95188 74.0604C9.13825 74.2347 9.32462 74.403 9.50498 74.5713C9.68534 74.7396 9.88373 74.9139 10.0942 75.0942L15.6913 80.4439L14.7594 83.2691L14.7534 83.263ZM13.521 80.0172L11.7054 78.4122L13.8937 71.8063L16.1662 72.0287L13.521 80.0232V80.0172Z" fill="black"/>
<path d="M19.4727 69.3838L17.7172 68.5062L13.587 57.32L15.3004 56.6588L11.2483 64.7675L8.78943 63.5412L13.7673 53.5812L15.5108 54.4528L19.6651 65.633L18.0599 66.3483L22.3945 57.6806L24.7452 58.8527L19.4787 69.3838H19.4727Z" fill="black"/>
<path d="M26.0378 56.8211L23.8976 55.3544L25.611 52.8599L19.8455 48.9047L18.1321 51.3992L15.9918 49.9326L21.096 42.4851L23.2362 43.9517L21.5168 46.4643L27.2883 50.4195L29.0077 47.9069L31.148 49.3736L26.0438 56.8211H26.0378Z" fill="black"/>
<path d="M33.3119 46.6206L24.288 38.4457L26.2719 36.2518L33.366 42.6714L38.3199 37.2015L40.2557 38.9507L33.3179 46.6086L33.3119 46.6206Z" fill="black"/>
<path d="M49.5326 31.1605L43.8874 23.4365L40.178 26.1474L38.6389 24.0436L48.5166 16.8305L50.0556 18.9344L46.2741 21.6934L51.9194 29.4174L49.5326 31.1605Z" fill="black"/>
<path d="M62.8608 22.9617C61.8808 23.4666 60.9189 23.7912 59.969 23.9234C59.0191 24.0557 58.1173 24.0256 57.2697 23.8272C56.422 23.6289 55.6585 23.2742 54.9791 22.7633C54.2997 22.2524 53.7527 21.5972 53.3378 20.7917C52.923 19.9923 52.7006 19.1628 52.6705 18.3152C52.6404 17.4677 52.7907 16.6382 53.1214 15.8267C53.4521 15.0153 53.939 14.2639 54.5943 13.5606C55.2436 12.8634 56.0552 12.2623 57.0232 11.7634C57.9791 11.2645 58.935 10.9519 59.8849 10.8136C60.8348 10.6814 61.7366 10.7175 62.5903 10.9218C63.444 11.1262 64.2075 11.4869 64.8808 11.9918C65.5602 12.5027 66.1012 13.1519 66.5161 13.9453C66.9249 14.7388 67.1473 15.5562 67.1774 16.4038C67.2074 17.2513 67.0571 18.0808 66.7385 18.8983C66.4139 19.7098 65.9269 20.4672 65.2716 21.1704C64.6163 21.8677 63.8167 22.4688 62.8668 22.9557L62.8608 22.9617ZM61.5622 20.5032C62.1273 20.2087 62.6143 19.854 63.0111 19.4453C63.4079 19.0366 63.7085 18.5978 63.9069 18.1349C64.1053 17.6721 64.2015 17.2032 64.1894 16.7224C64.1834 16.2415 64.0632 15.7847 63.8347 15.3399C63.6063 14.895 63.2937 14.5344 62.9089 14.2519C62.5181 13.9694 62.0792 13.777 61.5863 13.6748C61.0933 13.5726 60.5642 13.5666 59.9991 13.6568C59.434 13.747 58.8688 13.9393 58.2977 14.2338C57.7326 14.5284 57.2516 14.877 56.8548 15.2858C56.458 15.6945 56.1574 16.1333 55.947 16.5961C55.7366 17.065 55.6404 17.5338 55.6524 18.0147C55.6645 18.4896 55.7847 18.9524 56.0192 19.3912C56.2476 19.836 56.5542 20.1967 56.939 20.4792C57.3238 20.7617 57.7626 20.954 58.2676 21.0562C58.7666 21.1524 59.3017 21.1584 59.8608 21.0682C60.4199 20.9781 60.9851 20.7857 61.5502 20.4912L61.5622 20.5032Z" fill="black"/>
<path d="M77.711 16.4819L74.717 4.6825L81.4805 2.96939C82.2681 2.77103 83.0136 2.75901 83.723 2.93934C84.4324 3.11967 85.0456 3.45027 85.5686 3.94316C86.0857 4.43605 86.4404 5.04315 86.6267 5.77648C86.8251 6.56391 86.8071 7.32128 86.5726 8.04259C86.3382 8.7639 85.9294 9.39505 85.3522 9.924C84.7751 10.453 84.0717 10.8256 83.236 11.036L79.6108 11.9557L80.5787 15.7666L77.711 16.4939V16.4819ZM78.9254 9.44313L82.0937 8.63767C82.4544 8.54751 82.7611 8.39724 83.0196 8.18685C83.2781 7.97647 83.4645 7.73604 83.5787 7.45352C83.6929 7.17101 83.7109 6.88249 83.6328 6.57593C83.5606 6.2814 83.4103 6.059 83.1819 5.90271C82.9534 5.74643 82.6829 5.64424 82.3643 5.60818C82.0396 5.57211 81.7029 5.59616 81.3422 5.68632L78.1739 6.49178L78.9254 9.44313Z" fill="black"/>
<path d="M97.6768 12.8393C96.5767 12.9355 95.5666 12.8634 94.6348 12.629C93.7089 12.3885 92.8853 12.0159 92.1759 11.5109C91.4665 11.006 90.8953 10.3869 90.4685 9.65357C90.0356 8.92625 89.7831 8.10877 89.699 7.20714C89.6208 6.3055 89.729 5.45796 90.0236 4.66452C90.3182 3.87109 90.7751 3.1618 91.3883 2.53667C92.0015 1.91153 92.741 1.40061 93.6128 1.00389C94.4785 0.607167 95.4584 0.36072 96.5406 0.264545C97.6167 0.168371 98.6147 0.240502 99.5466 0.480938C100.478 0.721374 101.296 1.09405 102.005 1.61099C102.715 2.12191 103.286 2.74705 103.719 3.47437C104.152 4.2077 104.404 5.01316 104.482 5.90277C104.561 6.79238 104.452 7.63391 104.158 8.42735C103.863 9.22079 103.406 9.93608 102.799 10.5672C102.192 11.1984 101.452 11.7093 100.575 12.106C99.7029 12.5027 98.735 12.7492 97.6708 12.8454L97.6768 12.8393ZM97.4123 10.0683C98.0496 10.0142 98.6267 9.86997 99.1558 9.64155C99.6848 9.41314 100.124 9.12461 100.484 8.77598C100.845 8.42134 101.11 8.02462 101.284 7.57981C101.458 7.135 101.525 6.66014 101.482 6.16725C101.44 5.66835 101.29 5.21753 101.038 4.80879C100.785 4.40004 100.454 4.05742 100.04 3.7689C99.6247 3.48639 99.1377 3.27601 98.5786 3.14978C98.0195 3.01754 97.4243 2.98147 96.7871 3.03557C96.1498 3.08967 95.5727 3.23393 95.0496 3.46234C94.5266 3.69076 94.0817 3.97928 93.715 4.33393C93.3482 4.68857 93.0717 5.08529 92.9033 5.53009C92.735 5.9749 92.6689 6.44976 92.717 6.94266C92.7591 7.44156 92.9033 7.89238 93.1498 8.30112C93.3963 8.70986 93.733 9.05849 94.1598 9.33499C94.5867 9.61751 95.0797 9.82188 95.6328 9.95412C96.1859 10.0864 96.7811 10.1224 97.4123 10.0683Z" fill="black"/>
<path d="M107.404 12.142L108.312 0L115.045 0.504916C115.983 0.577046 116.77 0.793439 117.414 1.1601C118.057 1.52677 118.538 2.01966 118.857 2.62676C119.175 3.23988 119.307 3.93714 119.247 4.72457C119.187 5.49997 118.935 6.17921 118.496 6.76226C118.051 7.34532 117.48 7.79013 116.776 8.09067C116.073 8.39122 115.297 8.51143 114.456 8.45133L110.536 8.15679L110.223 12.3524L107.416 12.142H107.404ZM110.698 5.9027L114.287 6.17319C114.624 6.19724 114.937 6.14915 115.225 6.03494C115.514 5.91473 115.754 5.74041 115.947 5.50598C116.139 5.27156 116.247 4.98304 116.271 4.65244C116.295 4.33987 116.229 4.05736 116.073 3.81091C115.917 3.56446 115.7 3.36009 115.418 3.20982C115.135 3.05955 114.81 2.9754 114.444 2.94534L110.939 2.68086L110.698 5.90871V5.9027ZM115.887 12.7792L112.376 7.0027L115.478 6.79833L119.301 13.0316L115.887 12.7732V12.7792Z" fill="black"/>
<path d="M124.719 14.174L126.775 4.83302L122.29 3.84724L122.849 1.29861L134.795 3.93139L134.236 6.48001L129.666 5.47619L127.61 14.8171L124.725 14.18L124.719 14.174Z" fill="black"/>
<path d="M139.73 18.6759C138.57 18.2311 137.65 17.6119 136.959 16.8245C136.267 16.0371 135.841 15.1475 135.666 14.1557C135.498 13.1639 135.606 12.154 136.003 11.1262L138.372 4.98904L141.161 6.065L138.823 12.118C138.6 12.689 138.528 13.254 138.612 13.801C138.69 14.348 138.913 14.8349 139.273 15.2557C139.634 15.6824 140.091 16.001 140.656 16.2174C141.251 16.4458 141.829 16.524 142.382 16.4518C142.935 16.3797 143.44 16.1753 143.879 15.8267C144.323 15.4841 144.654 15.0212 144.877 14.4502L147.215 8.39722L149.909 9.43711L147.54 15.5742C147.143 16.6021 146.548 17.4256 145.754 18.0447C144.961 18.6638 144.047 19.0365 143.001 19.1567C141.961 19.277 140.867 19.1147 139.718 18.6759H139.73Z" fill="black"/>
<path d="M153.636 25.5043C152.746 24.9753 151.994 24.3742 151.381 23.695C150.768 23.0157 150.317 22.2824 150.041 21.507C149.764 20.7256 149.668 19.9081 149.764 19.0365C149.86 18.171 150.167 17.2994 150.69 16.4218C151.153 15.6464 151.736 15.0212 152.451 14.5644C153.161 14.1016 153.954 13.801 154.826 13.6568C155.698 13.5125 156.612 13.5426 157.568 13.7409C158.523 13.9393 159.461 14.318 160.387 14.865C161.145 15.3158 161.788 15.8087 162.323 16.3436C162.852 16.8786 163.285 17.4196 163.616 17.9666C163.946 18.5136 164.175 19.0305 164.301 19.5234L161.746 20.3169C161.584 19.9081 161.379 19.5174 161.139 19.1387C160.898 18.76 160.61 18.3934 160.267 18.0447C159.93 17.6961 159.521 17.3775 159.041 17.095C158.499 16.7764 157.952 16.56 157.393 16.4458C156.834 16.3316 156.299 16.3136 155.788 16.3917C155.277 16.4699 154.808 16.6502 154.393 16.9207C153.978 17.1912 153.636 17.5518 153.365 18.0027C153.035 18.5617 152.848 19.1027 152.818 19.6256C152.782 20.1485 152.866 20.6475 153.065 21.1043C153.263 21.5671 153.552 21.9939 153.93 22.3846C154.309 22.7813 154.748 23.1239 155.247 23.4185C155.734 23.707 156.215 23.9234 156.69 24.0737C157.165 24.2179 157.604 24.2961 158.012 24.3021C158.421 24.3081 158.782 24.242 159.095 24.0917C159.407 23.9474 159.648 23.725 159.816 23.4185L159.99 23.1179L159.978 23.9234L156.071 21.6092L157.231 19.6496L163.231 23.2081C163.171 23.3584 163.087 23.5267 162.99 23.713C162.894 23.8993 162.804 24.0616 162.72 24.1999C162.636 24.3381 162.582 24.4343 162.552 24.4824C162.101 25.2398 161.56 25.8228 160.916 26.2316C160.273 26.6403 159.57 26.8808 158.794 26.9469C158.018 27.013 157.195 26.9228 156.311 26.6764C155.433 26.4299 154.532 26.0392 153.618 25.4922L153.636 25.5043Z" fill="black"/>
<path d="M160.189 29.231L172.423 23.5567L174.527 25.2999L171.203 38.3616L168.858 36.4201L170.764 28.8944C170.842 28.6119 170.914 28.3534 170.98 28.101C171.04 27.8545 171.112 27.6141 171.191 27.3857C171.269 27.1573 171.347 26.9288 171.437 26.6944C171.521 26.466 171.611 26.2376 171.708 26.0152L172.213 26.4119C171.984 26.5562 171.768 26.6944 171.551 26.8267C171.335 26.9589 171.112 27.0791 170.89 27.1933C170.662 27.3075 170.433 27.4157 170.211 27.5239C169.988 27.6321 169.754 27.7523 169.507 27.8786L162.485 31.1425L160.195 29.243L160.189 29.231ZM163.664 29.2671L165.822 28.1611L171.179 32.6031L170.145 34.6408L163.664 29.2671Z" fill="black"/>
<path d="M172.141 39.4976L181.147 31.2988L183.137 33.4867L176.061 39.9304L181.027 45.3823L179.097 47.1375L172.141 39.4976Z" fill="black"/>
<path d="M181.453 54.453L197.739 53.1064L199.417 55.8959L183.148 57.2726L181.453 54.453Z" fill="#5B16DB"/>
<path d="M193.778 73.1888L202.796 69.991L201.263 65.6631L203.722 64.7915L207.804 76.3204L205.345 77.192L203.782 72.78L194.764 75.9778L193.778 73.1888Z" fill="black"/>
<path d="M196.796 82.3553L208.73 79.939L210.798 90.1695L208.327 90.6684L206.824 83.251L199.832 84.6635L201.365 92.2493L198.894 92.7482L196.79 82.3493L196.796 82.3553ZM201.996 82.8663L204.347 82.3914L205.958 90.3559L203.601 90.8307L201.99 82.8663H201.996Z" fill="black"/>
<path d="M199.411 101.915C199.357 100.887 199.453 99.9192 199.706 99.0236C199.958 98.128 200.349 97.3345 200.872 96.6373C201.401 95.94 202.033 95.387 202.778 94.9843C203.523 94.5755 204.371 94.3471 205.321 94.299C206.247 94.2509 207.101 94.3952 207.876 94.7378C208.658 95.0804 209.349 95.5613 209.95 96.1864C210.551 96.8116 211.026 97.5569 211.381 98.4285C211.73 99.3001 211.934 100.238 211.988 101.242C212.03 101.969 211.982 102.684 211.85 103.375C211.718 104.067 211.525 104.716 211.267 105.317C211.008 105.918 210.72 106.423 210.389 106.838L208.002 105.263C208.255 104.938 208.477 104.578 208.682 104.181C208.886 103.784 209.042 103.351 209.151 102.865C209.259 102.384 209.295 101.843 209.265 101.236C209.241 100.725 209.133 100.238 208.94 99.7629C208.754 99.2881 208.495 98.8673 208.177 98.4886C207.852 98.1099 207.461 97.8214 206.998 97.611C206.535 97.4066 206.018 97.3165 205.453 97.3465C204.876 97.3766 204.371 97.5269 203.938 97.7974C203.505 98.0618 203.145 98.4165 202.862 98.8493C202.58 99.282 202.375 99.7689 202.255 100.31C202.135 100.851 202.087 101.41 202.117 101.987C202.147 102.6 202.261 103.141 202.447 103.604C202.634 104.067 202.862 104.481 203.121 104.836C203.385 105.197 203.626 105.509 203.854 105.792L201.636 107.307C201.341 106.982 201.029 106.555 200.692 106.008C200.361 105.461 200.073 104.842 199.832 104.145C199.592 103.448 199.447 102.708 199.405 101.921L199.411 101.915Z" fill="black"/>
<path d="M198.822 119.004L210.936 120.266L210.629 123.205L198.515 121.943L198.822 119.004ZM199.802 109.555L211.916 110.817L211.609 113.756L199.495 112.494L199.802 109.555ZM204.353 111.184L206.98 111.49L205.958 121.318L203.331 121.048L204.359 111.184H204.353Z" fill="black"/>
<path d="M195.112 134.945L208.405 133.676L207.413 136.592L200.788 137.115C200.577 137.127 200.313 137.151 200 137.187C199.688 137.223 199.345 137.253 198.978 137.277C198.605 137.301 198.227 137.325 197.83 137.337C197.433 137.349 197.048 137.349 196.676 137.331L196.874 136.736C197.247 137.012 197.613 137.301 197.98 137.608C198.347 137.914 198.702 138.221 199.038 138.527C199.375 138.834 199.694 139.116 200 139.375L204.99 143.715L204.01 146.594L194.205 137.602L195.112 134.933V134.945Z" fill="black"/>
<path d="M191.632 144.28L193.946 145.452L192.575 148.151L198.816 151.306L200.187 148.607L202.501 149.78L198.419 157.834L196.104 156.662L197.481 153.945L191.241 150.783L189.864 153.5L187.549 152.328L191.632 144.274V144.28Z" fill="black"/>
<path d="M182.68 159.511C183.227 158.73 183.792 158.069 184.393 157.522C184.988 156.975 185.601 156.536 186.227 156.199C186.852 155.863 187.483 155.598 188.12 155.412L189.173 157.924C188.102 158.243 187.195 158.676 186.449 159.229C185.704 159.782 185.09 160.401 184.615 161.086C184.405 161.393 184.219 161.723 184.056 162.084C183.894 162.445 183.822 162.781 183.828 163.094C183.834 163.406 183.978 163.653 184.243 163.839C184.393 163.947 184.555 163.989 184.73 163.965C184.904 163.941 185.084 163.863 185.283 163.737C185.481 163.605 185.686 163.442 185.902 163.244C186.118 163.046 186.335 162.823 186.557 162.577C186.78 162.33 187.002 162.072 187.219 161.795C187.736 161.212 188.259 160.719 188.776 160.317C189.293 159.914 189.804 159.619 190.309 159.421C190.814 159.229 191.301 159.157 191.782 159.205C192.263 159.253 192.726 159.439 193.171 159.752C193.676 160.1 194.042 160.539 194.265 161.056C194.487 161.573 194.589 162.144 194.559 162.763C194.529 163.388 194.385 164.031 194.138 164.693C193.892 165.354 193.537 166.015 193.086 166.664C192.593 167.367 192.088 167.951 191.571 168.413C191.048 168.876 190.531 169.243 190.014 169.513C189.497 169.784 189.004 169.958 188.535 170.042L187.748 167.674C188.169 167.554 188.583 167.374 188.986 167.127C189.395 166.881 189.774 166.586 190.134 166.249C190.495 165.913 190.808 165.558 191.072 165.174C191.349 164.771 191.565 164.392 191.704 164.037C191.842 163.683 191.92 163.358 191.914 163.082C191.908 162.805 191.794 162.583 191.565 162.427C191.391 162.306 191.187 162.276 190.952 162.336C190.712 162.396 190.471 162.529 190.225 162.727C189.978 162.925 189.732 163.166 189.479 163.43C189.233 163.695 188.986 163.959 188.752 164.218C188.295 164.735 187.826 165.216 187.351 165.666C186.876 166.117 186.383 166.484 185.884 166.766C185.385 167.049 184.874 167.187 184.357 167.175C183.84 167.169 183.287 166.959 182.71 166.556C182.012 166.075 181.561 165.45 181.345 164.693C181.129 163.935 181.141 163.106 181.375 162.21C181.609 161.315 182.048 160.407 182.68 159.493V159.511Z" fill="black"/>
<path d="M179.277 164.783L184.206 177.334L182.337 179.329L169.501 175.218L171.581 172.994L178.982 175.35C179.259 175.446 179.517 175.536 179.758 175.614C179.998 175.693 180.239 175.777 180.461 175.867C180.683 175.957 180.912 176.053 181.134 176.149C181.357 176.246 181.579 176.354 181.796 176.462L181.369 176.943C181.237 176.708 181.116 176.48 180.996 176.258C180.876 176.035 180.768 175.807 180.671 175.572C180.575 175.338 180.479 175.104 180.383 174.875C180.287 174.647 180.184 174.4 180.07 174.154L177.239 166.947L179.271 164.777L179.277 164.783ZM179.03 168.251L180.004 170.469L175.249 175.548L173.277 174.394L179.036 168.251H179.03Z" fill="black"/>
<path d="M163.357 180.255L170.259 190.287L164.511 194.242C163.844 194.705 163.147 194.97 162.419 195.048C161.692 195.126 161 195.024 160.345 194.747C159.69 194.471 159.143 194.02 158.716 193.395C158.253 192.728 158.012 192.012 157.982 191.249C157.952 190.491 158.115 189.758 158.475 189.061C158.836 188.364 159.365 187.775 160.074 187.288L163.153 185.166L160.922 181.926L163.357 180.249V180.255ZM164.662 187.276L161.968 189.127C161.662 189.337 161.427 189.584 161.253 189.872C161.078 190.161 160.994 190.449 160.982 190.756C160.97 191.056 161.054 191.339 161.235 191.597C161.403 191.844 161.626 192.006 161.89 192.072C162.155 192.144 162.449 192.138 162.762 192.066C163.074 191.988 163.387 191.85 163.694 191.64L166.387 189.788L164.662 187.282V187.276Z" fill="black"/>
<path d="M144.221 191.591L150.155 194.825L147.576 196.556L141.137 193.082L144.221 191.585V191.591ZM151.875 187.883L157.183 198.841L151.111 201.786C150.263 202.195 149.476 202.405 148.736 202.405C147.997 202.405 147.336 202.225 146.752 201.858C146.169 201.491 145.706 200.95 145.358 200.241C145.021 199.544 144.895 198.829 144.985 198.101C145.075 197.374 145.352 196.701 145.809 196.088C146.265 195.474 146.873 194.982 147.636 194.609L151.177 192.896L149.344 189.109L151.881 187.883H151.875ZM152.163 194.933L148.923 196.502C148.622 196.647 148.376 196.845 148.183 197.091C147.991 197.338 147.877 197.608 147.829 197.909C147.78 198.209 147.829 198.51 147.979 198.811C148.117 199.093 148.316 199.303 148.574 199.442C148.833 199.58 149.121 199.64 149.44 199.634C149.758 199.622 150.083 199.538 150.414 199.376L153.576 197.843L152.163 194.933Z" fill="black"/>
<path d="M132.606 195.649C133.664 195.336 134.668 195.204 135.63 195.252C136.586 195.3 137.464 195.505 138.263 195.859C139.057 196.214 139.742 196.713 140.307 197.338C140.878 197.969 141.287 198.714 141.546 199.586C141.804 200.452 141.864 201.305 141.732 202.141C141.6 202.976 141.293 203.764 140.818 204.497C140.343 205.23 139.718 205.879 138.943 206.438C138.167 206.997 137.265 207.436 136.219 207.743C135.185 208.049 134.187 208.176 133.231 208.127C132.275 208.079 131.398 207.875 130.598 207.508C129.798 207.148 129.119 206.649 128.548 206.018C127.977 205.386 127.568 204.647 127.315 203.788C127.063 202.928 127.003 202.086 127.135 201.245C127.267 200.409 127.568 199.622 128.043 198.883C128.512 198.143 129.137 197.494 129.913 196.929C130.688 196.364 131.59 195.931 132.612 195.631L132.606 195.649ZM133.412 198.312C132.798 198.492 132.257 198.744 131.788 199.075C131.319 199.4 130.941 199.772 130.658 200.193C130.375 200.608 130.195 201.053 130.111 201.527C130.027 202.002 130.057 202.477 130.195 202.952C130.339 203.427 130.574 203.842 130.899 204.196C131.223 204.545 131.62 204.821 132.083 205.014C132.546 205.206 133.063 205.314 133.64 205.332C134.217 205.35 134.806 205.266 135.42 205.086C136.033 204.906 136.568 204.653 137.037 204.329C137.5 204.004 137.884 203.631 138.173 203.211C138.468 202.79 138.654 202.345 138.732 201.876C138.81 201.407 138.78 200.932 138.636 200.452C138.492 199.971 138.263 199.556 137.939 199.207C137.614 198.853 137.217 198.582 136.742 198.39C136.267 198.197 135.744 198.089 135.179 198.071C134.608 198.053 134.019 198.131 133.412 198.312Z" fill="black"/>
<path d="M116.939 198.865C117.967 198.744 118.929 198.768 119.831 198.937C120.732 199.105 121.532 199.412 122.229 199.862C122.927 200.313 123.498 200.908 123.949 201.654C124.4 202.399 124.682 203.283 124.802 204.293C124.911 205.188 124.82 206.042 124.532 206.835C124.243 207.629 123.798 208.356 123.191 208.999C122.584 209.642 121.839 210.177 120.961 210.592C120.083 211.013 119.109 211.283 118.033 211.409C117.155 211.512 116.344 211.512 115.598 211.409C114.847 211.307 114.179 211.133 113.584 210.905C112.989 210.67 112.496 210.4 112.093 210.081L113.638 207.905C114.017 208.127 114.414 208.32 114.835 208.47C115.255 208.626 115.706 208.741 116.187 208.813C116.668 208.885 117.185 208.885 117.738 208.825C118.364 208.753 118.929 208.59 119.44 208.344C119.951 208.097 120.39 207.785 120.75 207.412C121.111 207.039 121.37 206.613 121.538 206.144C121.706 205.675 121.754 205.182 121.694 204.665C121.616 204.022 121.436 203.481 121.141 203.042C120.853 202.603 120.486 202.261 120.047 202.014C119.608 201.768 119.121 201.606 118.58 201.521C118.039 201.437 117.48 201.431 116.903 201.497C116.338 201.564 115.827 201.684 115.358 201.852C114.895 202.026 114.498 202.231 114.167 202.471C113.843 202.712 113.596 202.988 113.434 203.295C113.271 203.601 113.217 203.926 113.265 204.268L113.308 204.611L112.827 203.968L117.336 203.439L117.6 205.699L110.674 206.517C110.632 206.36 110.596 206.174 110.56 205.97C110.524 205.765 110.494 205.579 110.476 205.417C110.458 205.254 110.446 205.146 110.44 205.086C110.338 204.208 110.416 203.415 110.674 202.706C110.933 201.99 111.354 201.371 111.925 200.848C112.496 200.325 113.211 199.893 114.059 199.556C114.907 199.219 115.863 198.985 116.921 198.859L116.939 198.865Z" fill="black"/>
<path d="M99.0292 199.472L102.721 205.134L99.6244 205.435L95.6024 199.327L99.0292 199.472ZM107.53 199.838L107.007 212.004L100.262 211.716C99.3238 211.674 98.5302 211.482 97.8749 211.133C97.2196 210.784 96.7267 210.309 96.384 209.708C96.0413 209.107 95.891 208.416 95.9271 207.629C95.9571 206.853 96.1916 206.168 96.6184 205.567C97.0453 204.966 97.6044 204.509 98.2958 204.184C98.9872 203.86 99.7567 203.715 100.604 203.752L104.53 203.92L104.711 199.712L107.524 199.832L107.53 199.838ZM104.44 206.18L100.845 206.024C100.508 206.012 100.196 206.066 99.913 206.192C99.6304 206.318 99.396 206.505 99.2096 206.745C99.0232 206.985 98.927 207.274 98.909 207.611C98.897 207.923 98.9691 208.2 99.1314 208.446C99.2938 208.692 99.5162 208.885 99.8048 209.023C100.087 209.161 100.418 209.239 100.785 209.258L104.296 209.408L104.434 206.174L104.44 206.18Z" fill="black"/>
<path d="M94.869 199.303L86.843 210.141L84.1617 209.618L80.837 196.556L83.825 197.14L85.7548 204.659C85.8149 204.942 85.8811 205.206 85.9412 205.459C86.0013 205.711 86.0554 205.951 86.0975 206.192C86.1396 206.432 86.1757 206.673 86.2117 206.913C86.2478 207.154 86.2779 207.4 86.3019 207.641L85.6646 207.532C85.7909 207.298 85.9232 207.07 86.0434 206.853C86.1696 206.637 86.3079 206.42 86.4522 206.216C86.5965 206.012 86.7468 205.801 86.8911 205.603C87.0354 205.404 87.1857 205.182 87.336 204.954L91.9411 198.732L94.8629 199.303H94.869ZM91.8029 200.938L90.4381 202.94L83.6086 201.6L83.5424 199.315L91.8029 200.932V200.938Z" fill="black"/>
<path d="M79.478 196.166L75.1795 207.556L72.7026 206.625L70.1715 198.252L71.7647 198.853L64.3159 203.463L61.875 202.543L66.1736 191.153L68.8609 192.168L67.4721 195.847C67.1295 196.761 66.7808 197.602 66.4381 198.378C66.0894 199.153 65.7046 199.923 65.2778 200.692L65.3379 199.694L71.2537 196.238L72.3298 196.641L74.5001 203.168L73.8569 203.932C74.0312 203.078 74.2416 202.255 74.4941 201.449C74.7466 200.644 75.0532 199.778 75.4019 198.847L76.7907 195.168L79.478 196.184V196.166Z" fill="black"/>
<path d="M57.1134 184.553L42.9913 192.77L40.2799 190.972L54.372 182.731L57.1134 184.547V184.553Z" fill="#5B16DB"/>
</g>
<path d="M144.127 67.8729H67.8734V144.126H144.127V67.8729Z" stroke="#5B16DB" stroke-width="2"/>
<path d="M71.1614 62.9819H63.9824C63.4301 62.9819 62.9824 63.4296 62.9824 63.9819V71.161C62.9824 71.7132 63.4301 72.161 63.9824 72.161H71.1614C71.7137 72.161 72.1614 71.7132 72.1614 71.161V63.9819C72.1614 63.4296 71.7137 62.9819 71.1614 62.9819Z" fill="white" stroke="#5B16DB" stroke-width="2"/>
<path d="M71.1614 139.838H63.9824C63.4301 139.838 62.9824 140.286 62.9824 140.838V148.017C62.9824 148.569 63.4301 149.017 63.9824 149.017H71.1614C71.7137 149.017 72.1614 148.569 72.1614 148.017V140.838C72.1614 140.286 71.7137 139.838 71.1614 139.838Z" fill="white" stroke="#5B16DB" stroke-width="2"/>
<path d="M148.018 62.9819H140.839C140.286 62.9819 139.839 63.4296 139.839 63.9819V71.161C139.839 71.7132 140.286 72.161 140.839 72.161H148.018C148.57 72.161 149.018 71.7132 149.018 71.161V63.9819C149.018 63.4296 148.57 62.9819 148.018 62.9819Z" fill="white" stroke="#5B16DB" stroke-width="2"/>
<path d="M148.018 139.838H140.839C140.286 139.838 139.839 140.286 139.839 140.838V148.017C139.839 148.569 140.286 149.017 140.839 149.017H148.018C148.57 149.017 149.018 148.569 149.018 148.017V140.838C149.018 140.286 148.57 139.838 148.018 139.838Z" fill="white" stroke="#5B16DB" stroke-width="2"/>
<path d="M86.7108 87.5869H121.782C123.719 87.5869 125.289 89.1571 125.289 91.0941V110.383H130.112V91.0941C130.112 86.4938 126.382 82.7646 121.782 82.7646H86.7108V87.5869Z" fill="#5B16DB"/>
<path d="M130.989 134.933H135.811V127.537C135.811 123.685 133.705 120.14 130.322 118.297L86.8023 94.5946C86.7459 94.5639 86.7108 94.5048 86.7108 94.4406V87.5869H76.1893V95.5865C76.1893 98.797 77.944 101.751 80.7635 103.286L125.198 127.487C125.254 127.518 125.289 127.577 125.289 127.641V134.933H130.112V127.537C130.112 125.771 129.147 124.147 127.596 123.302L83.07 99.0515C81.8013 98.3605 81.0117 97.0313 81.0117 95.5865V87.5869H81.8884V95.5865C81.8884 96.7102 82.5026 97.744 83.4894 98.2815L128.015 122.532C129.848 123.53 130.989 125.45 130.989 127.537V134.933Z" fill="#5B16DB"/>
<path d="M86.7108 81.8878V77.0655H121.782C129.53 77.0655 135.811 83.3463 135.811 91.0941V110.383H130.989V91.0941C130.989 86.0096 126.867 81.8878 121.782 81.8878H86.7108Z" fill="#5B16DB"/>
<path d="M86.7108 110.383V134.933H81.8884V110.383H86.7108Z" fill="#5B16DB"/>
<path d="M81.0117 110.383H76.1893V134.933H81.0117V110.383Z" fill="#5B16DB"/>
<defs>
<clipPath id="clip0_559_1669">
<rect width="212" height="211.998" fill="white"/>
</clipPath>
</defs>
</svg>
